# Blender v2.78 (sub 0) OBJ File: 'uigaw0gc9w-Barco.blend'
# www.blender.org
o Barco
v -0.000002 -0.352740 1.416211
v -0.000002 0.387798 2.049824
v -0.297999 0.387798 1.772118
v -0.122722 -0.352740 1.301856
v 0.122718 -0.352740 1.301856
v 0.297995 0.387798 1.772118
v 0.238595 -0.352740 1.169133
v 0.439125 0.387798 1.610479
v 0.346650 -0.352740 1.019173
v 0.570711 0.387798 1.427860
v 0.445949 -0.352740 0.853273
v 0.691654 0.387798 1.225807
v 0.535658 -0.352740 0.672808
v 0.800900 0.387798 1.006027
v 0.615007 -0.352740 0.479350
v 0.897542 0.387798 0.770415
v 0.683328 -0.352740 0.274533
v 0.980757 0.387798 0.520970
v 0.740044 -0.352740 0.060082
v 1.049820 0.387798 0.259799
v 0.784660 -0.352740 -0.162156
v 1.104154 0.387798 -0.010868
v 0.816801 -0.352740 -0.390318
v 1.143302 0.387798 -0.288726
v 0.836192 -0.352740 -0.622434
v 1.166925 0.387798 -0.571424
v 0.842677 -0.352740 -0.856535
v 1.174472 0.387798 -0.843770
v 0.842677 -0.352740 -3.129280
v 1.174472 0.387798 -3.129280
v -0.842680 -0.352740 -3.129280
v -0.238599 -0.352740 1.169133
v -0.346645 -0.352740 1.019173
v -0.445944 -0.352740 0.853273
v -0.535653 -0.352740 0.672808
v -0.615011 -0.352740 0.479350
v -0.683332 -0.352740 0.274533
v -0.740039 -0.352740 0.060082
v -0.784655 -0.352740 -0.162156
v -0.816796 -0.352740 -0.390318
v -0.836196 -0.352740 -0.622434
v -0.842681 -0.352740 -0.856535
v -1.174467 0.387798 -3.129280
v -1.174467 0.387798 -0.843771
v -1.340365 0.387798 -0.837389
v -1.174467 0.387798 -3.300081
v -1.174467 0.387798 -3.751259
v -1.340365 0.387798 -3.958855
v 1.174472 0.387798 -3.751259
v 1.340361 0.387798 -3.958855
v 1.340361 0.387798 -0.837389
v 0.951200 -0.502202 -3.310173
v 0.951199 -0.502202 -0.852366
v -0.951194 -0.502202 -3.310173
v -0.951194 -0.502202 -0.852366
v -1.332286 0.387798 -0.545912
v -0.944370 -0.502202 -0.605746
v -1.306557 0.387798 -0.237945
v -0.923587 -0.502202 -0.357080
v -1.263910 0.387798 0.064769
v -0.889156 -0.502202 -0.112673
v -1.204712 0.387798 0.359651
v -0.841362 -0.502202 0.125397
v -1.129466 0.387798 0.644181
v -0.780606 -0.502202 0.355132
v -1.038814 0.387798 0.915947
v -0.707412 -0.502202 0.574544
v -0.933525 0.387798 1.172645
v -0.622412 -0.502202 0.781805
v -0.814497 0.387798 1.412074
v -0.526310 -0.502202 0.975110
v -0.682746 0.387798 1.632204
v -0.419931 -0.502202 1.152842
v -0.539380 0.387798 1.831159
v -0.304181 -0.502202 1.313490
v -0.385638 0.387798 2.007258
v -0.180051 -0.502202 1.455664
v -0.000002 0.387798 2.366630
v -0.000002 -0.502202 1.623441
v 0.385633 0.387798 2.007258
v 0.180047 -0.502202 1.455664
v 0.539386 0.387798 1.831159
v 0.304187 -0.502202 1.313490
v 0.682751 0.387798 1.632204
v 0.419927 -0.502202 1.152842
v 0.814502 0.387798 1.412074
v 0.526306 -0.502202 0.975110
v 0.933530 0.387798 1.172645
v 0.622408 -0.502202 0.781805
v 1.038819 0.387798 0.915947
v 0.707418 -0.502202 0.574545
v 1.129462 0.387798 0.644181
v 0.780612 -0.502202 0.355132
v 1.204708 0.387798 0.359651
v 0.841358 -0.502202 0.125397
v 1.263906 0.387798 0.064769
v 0.889152 -0.502202 -0.112673
v 1.306553 0.387798 -0.237945
v 0.923592 -0.502202 -0.357080
v 1.332291 0.387798 -0.545911
v 0.944366 -0.502202 -0.605746
v 1.174472 0.387798 -3.300081
v 1.174472 0.147798 -3.300081
v 1.174472 0.147798 -3.751259
v -1.174467 0.147798 -3.300081
v -1.174467 0.147798 -3.751259
v -0.439120 0.387798 1.610479
v -0.570716 0.387798 1.427860
v -0.691649 0.387798 1.225807
v -0.800904 0.387798 1.006027
v -0.897547 0.387798 0.770415
v -0.980752 0.387798 0.520970
v -1.049824 0.387798 0.259799
v -1.104159 0.387798 -0.010868
v -1.143306 0.387798 -0.288726
v -1.166929 0.387798 -0.571424
vt 0.9692 2.2422
vt 0.0800 2.5823
vt 0.0800 2.8476
vt 0.0800 2.5823
vt 0.9692 2.1329
vt 0.0800 2.4278
vt 0.9692 2.0061
vt 0.0800 2.2533
vt 0.9692 1.8628
vt 0.0800 2.0602
vt 0.9692 1.7042
vt 0.0800 1.8502
vt 0.9692 1.5318
vt 0.0800 1.6251
vt 0.9692 1.3469
vt 0.0800 1.3867
vt 0.9692 1.1512
vt 0.0800 1.1371
vt 0.9692 0.9463
vt 0.0800 0.8785
vt 0.9692 0.7339
vt 0.0800 0.6129
vt 0.9692 0.5159
vt 0.0800 0.3428
vt 0.9692 0.2941
vt 0.0800 0.0826
vt 0.9692 0.0704
vt 0.0800 -2.1015
vt 0.9692 -2.1015
vt -0.5648 0.5959
vt 0.8782 0.1107
vt 1.1155 0.5959
vt 0.9692 0.0704
vt 0.0800 -2.1015
vt 0.0800 0.0826
vt 1.3171 -0.6736
vt 1.4320 -1.0534
vt 1.4320 0.3757
vt 0.7103 1.5703
vt 0.7710 1.6780
vt 0.5040 1.6975
vt 0.0700 0.3737
vt 0.9362 -1.5415
vt 0.0700 -2.0439
vt 1.2342 0.5959
vt -0.4050 0.0128
vt -0.6834 0.5959
vt 0.0700 0.3737
vt 0.9362 -1.5415
vt 0.9362 0.3621
vt 0.9362 0.5531
vt 0.0700 0.5994
vt 0.9362 0.7457
vt 0.0700 0.8379
vt 0.9362 0.9350
vt 0.0700 1.0724
vt 0.9362 1.1194
vt 0.0700 1.3008
vt 0.9362 1.2973
vt 0.0700 1.5212
vt 0.9362 1.4672
vt 0.0700 1.7316
vt 0.9362 1.6277
vt 0.0700 1.9304
vt 0.9362 1.7775
vt 0.0700 2.1159
vt 0.9362 1.9151
vt 0.0700 2.2864
vt 0.9362 2.0395
vt 0.0700 2.4405
vt 0.9362 2.1496
vt 0.0700 2.5769
vt 0.9362 2.2796
vt 0.0700 2.8552
vt 0.0700 2.5769
vt 0.9362 2.1496
vt 0.0700 2.4405
vt 0.9362 2.0395
vt 0.0700 2.2864
vt 0.9362 1.9151
vt 0.0700 2.1159
vt 0.9362 1.7775
vt 0.0700 1.9304
vt 0.9362 1.6277
vt 0.0700 1.7316
vt 0.9362 1.4672
vt 0.0700 1.5212
vt 0.9362 1.2973
vt 0.0700 1.3008
vt 0.9362 1.1194
vt 0.0700 1.0724
vt 0.9362 0.9350
vt 0.0700 0.8379
vt 0.9362 0.7457
vt 0.0700 0.5994
vt 0.9362 0.5531
vt 0.9362 0.3621
vt 1.3119 0.4974
vt 1.4264 0.5091
vt 1.1155 0.5959
vt 1.1155 0.4387
vt 1.1155 0.5959
vt -0.5648 0.5959
vt 1.3171 -0.9584
vt -0.4240 -1.0534
vt -0.5648 0.4387
vt -0.5648 0.5959
vt -0.5648 0.4387
vt 1.3171 -0.9584
vt -0.3091 -0.7518
vt -0.3091 -0.9584
vt -0.2604 0.7541
vt -0.4005 0.6501
vt -0.2875 0.6268
vt -0.2228 0.8780
vt -0.3710 0.7887
vt -0.1750 0.9975
vt -0.3300 0.9237
vt -0.1174 1.1117
vt -0.2779 1.0539
vt -0.0505 1.2196
vt -0.2152 1.1784
vt 0.0252 1.3202
vt -0.1423 1.2959
vt 0.1089 1.4127
vt -0.0599 1.4055
vt 0.2000 1.4963
vt 0.0313 1.5063
vt -0.4184 0.5091
vt -0.3039 0.4974
vt 0.5040 1.8425
vt 0.2370 1.6780
vt 0.2977 1.5703
vt 0.1306 1.5974
vt 0.8080 1.4963
vt 0.9767 1.5063
vt 0.8774 1.5974
vt 0.8991 1.4127
vt 1.0679 1.4055
vt 0.9829 1.3202
vt 1.1503 1.2959
vt 1.0585 1.2196
vt 1.2232 1.1784
vt 1.1254 1.1117
vt 1.2860 1.0539
vt 1.1830 0.9975
vt 1.3381 0.9237
vt 1.2308 0.8780
vt 1.3790 0.7887
vt 1.2684 0.7541
vt 1.4086 0.6501
vt 1.2955 0.6268
vt 0.9692 0.2941
vt 0.0800 0.3428
vt 0.9692 0.5159
vt 0.0800 0.6129
vt 0.9692 0.7339
vt 0.0800 0.8785
vt 0.9692 0.9463
vt 0.0800 1.1371
vt 0.9692 1.1512
vt 0.0800 1.3867
vt 0.9692 1.3469
vt 0.0800 1.6251
vt 0.9692 1.5318
vt 0.0800 1.8502
vt 0.9692 1.7042
vt 0.0800 2.0602
vt 0.9692 1.8628
vt 0.0800 2.2533
vt 0.9692 2.0061
vt 0.0800 2.4278
vt 0.9692 2.1329
vt -0.0785 0.8164
vt 1.0444 0.9216
vt 1.0865 0.8164
vt -0.3091 -0.6736
vt -0.4240 0.3757
vt 0.9771 0.8847
vt -0.0083 0.7865
vt 1.0164 0.7865
vt -0.3274 0.1107
vt 0.9692 -2.1015
vt -0.3091 -0.7518
vt 1.3171 -0.7518
vt 1.3171 0.3727
vt 0.9558 0.0128
vt 0.0700 -2.0439
vt 1.1155 0.4387
vt -0.3091 -0.9584
vt 1.3171 -0.7518
vt 1.1625 -0.7564
vt -0.1545 -0.7564
vt -0.1545 0.3688
vt -0.1498 0.4817
vt 1.1625 0.3688
vt -0.1354 0.5956
vt -0.1116 0.7074
vt 1.1434 0.5956
vt -0.0364 0.9216
vt 0.0142 1.0221
vt 0.0731 1.1170
vt 0.9349 1.1170
vt 0.1396 1.2054
vt 0.2133 1.2868
vt 0.7947 1.2868
vt 0.2934 1.3604
vt 0.3794 1.4255
vt 0.7146 1.3604
vt 0.5040 1.5023
vt 0.6287 1.4255
vt 0.8684 1.2054
vt 0.9938 1.0221
vt 1.1196 0.7074
vt 1.1578 0.4817
vt -0.3091 0.3727
vt 1.0874 -0.6736
vt 1.0874 0.3669
vt -0.0794 -0.6736
vt 1.0829 0.4741
vt 1.0695 0.5803
vt -0.0615 0.5803
vt 1.0472 0.6848
vt -0.0392 0.6848
vt 0.9298 0.9785
vt 0.0782 0.9785
vt 0.8749 1.0671
vt 0.8127 1.1497
vt 0.1332 1.0671
vt 0.7440 1.2256
vt 0.6692 1.2943
vt 0.3388 1.2943
vt 0.5890 1.3550
vt 0.5040 1.4074
vt 0.4191 1.3550
vt 0.2640 1.2256
vt 0.1953 1.1497
vt 0.0309 0.8847
vt -0.0749 0.4741
vt -0.0794 0.3669
vn 0.5779 0.5306 -0.6201
vn -0.5779 0.5306 -0.6201
vn -0.6471 0.5119 -0.5650
vn -0.7054 0.4940 -0.5083
vn -0.7540 0.4772 -0.4513
vn -0.7941 0.4621 -0.3948
vn -0.8268 0.4487 -0.3391
vn -0.8531 0.4373 -0.2846
vn -0.8738 0.4278 -0.2311
vn -0.8896 0.4203 -0.1786
vn -0.9011 0.4147 -0.1269
vn -0.9085 0.4110 -0.0759
vn -0.9121 0.4091 -0.0253
vn -0.9126 0.4089 -0.0000
vn 0.0000 0.0000 1.0000
vn 0.9126 0.4089 0.0000
vn -0.0000 1.0000 0.0000
vn 0.9162 -0.4006 0.0000
vn 0.0000 -0.5890 -0.8081
vn -0.9162 -0.4006 -0.0000
vn -0.9158 -0.4009 0.0254
vn -0.9122 -0.4027 0.0762
vn -0.9048 -0.4064 0.1275
vn -0.8934 -0.4119 0.1793
vn -0.8776 -0.4194 0.2321
vn -0.8570 -0.4288 0.2859
vn -0.8308 -0.4401 0.3408
vn -0.7982 -0.4533 0.3968
vn -0.7582 -0.4683 0.4538
vn -0.7095 -0.4849 0.5113
vn -0.6512 -0.5028 0.5685
vn -0.5818 -0.5213 0.6243
vn 0.5818 -0.5213 0.6243
vn 0.6511 -0.5028 0.5685
vn 0.7096 -0.4849 0.5112
vn 0.7581 -0.4683 0.4538
vn 0.7982 -0.4533 0.3968
vn 0.8308 -0.4401 0.3408
vn 0.8570 -0.4288 0.2859
vn 0.8776 -0.4194 0.2321
vn 0.8934 -0.4119 0.1794
vn 0.9048 -0.4064 0.1275
vn 0.9122 -0.4027 0.0762
vn 0.9158 -0.4009 0.0254
vn -1.0000 0.0000 0.0000
vn 0.0000 0.0000 -1.0000
vn 1.0000 -0.0000 0.0000
vn 0.9121 0.4091 -0.0252
vn 0.9085 0.4110 -0.0759
vn 0.9011 0.4147 -0.1270
vn 0.8896 0.4203 -0.1786
vn 0.8738 0.4278 -0.2311
vn 0.8531 0.4373 -0.2846
vn 0.8268 0.4488 -0.3391
vn 0.7941 0.4621 -0.3948
vn 0.7540 0.4772 -0.4513
vn 0.7054 0.4940 -0.5083
vn 0.6471 0.5119 -0.5650
vn 0.0000 -1.0000 -0.0000
vn -0.7941 0.4621 -0.3947
vn -0.8738 0.4279 -0.2311
vn -0.9011 0.4147 -0.1270
vn -0.9158 -0.4009 0.0253
vn -0.8934 -0.4119 0.1794
vn -0.8308 -0.4401 0.3407
vn -0.7581 -0.4683 0.4538
vn -0.7096 -0.4849 0.5113
vn 0.6512 -0.5028 0.5685
vn 0.7095 -0.4849 0.5113
vn 0.7582 -0.4683 0.4538
vn 0.8570 -0.4288 0.2858
vn 0.8934 -0.4119 0.1793
vn 0.9121 0.4091 -0.0253
vn 0.9011 0.4147 -0.1269
vn 0.8738 0.4279 -0.2311
vn 0.8268 0.4488 -0.3392
s off
f 1/1/1 3/2/1 2/3/1
f 6/4/2 1/1/2 2/3/2
f 5/5/3 8/6/3 7/7/3
f 7/7/4 10/8/4 9/9/4
f 9/9/5 12/10/5 11/11/5
f 11/11/6 14/12/6 13/13/6
f 13/13/7 16/14/7 15/15/7
f 15/15/8 18/16/8 17/17/8
f 17/17/9 20/18/9 19/19/9
f 19/19/10 22/20/10 21/21/10
f 21/21/11 24/22/11 23/23/11
f 23/23/12 26/24/12 25/25/12
f 25/25/13 28/26/13 27/27/13
f 27/27/14 30/28/14 29/29/14
f 43/30/15 29/31/15 30/32/15
f 42/33/16 43/34/16 44/35/16
f 43/36/17 48/37/17 45/38/17
f 3/39/17 76/40/17 2/41/17
f 51/42/18 52/43/18 50/44/18
f 50/45/19 54/46/19 48/47/19
f 45/48/20 54/49/20 55/50/20
f 45/48/21 57/51/21 56/52/21
f 56/52/22 59/53/22 58/54/22
f 58/54/23 61/55/23 60/56/23
f 60/56/24 63/57/24 62/58/24
f 62/58/25 65/59/25 64/60/25
f 64/60/26 67/61/26 66/62/26
f 66/62/27 69/63/27 68/64/27
f 68/64/28 71/65/28 70/66/28
f 70/66/29 73/67/29 72/68/29
f 72/68/30 75/69/30 74/70/30
f 74/70/31 77/71/31 76/72/31
f 76/72/32 79/73/32 78/74/32
f 80/75/33 79/73/33 81/76/33
f 82/77/34 81/76/34 83/78/34
f 84/79/35 83/78/35 85/80/35
f 86/81/36 85/80/36 87/82/36
f 88/83/37 87/82/37 89/84/37
f 90/85/38 89/84/38 91/86/38
f 92/87/39 91/86/39 93/88/39
f 94/89/40 93/88/40 95/90/40
f 96/91/41 95/90/41 97/92/41
f 98/93/42 97/92/42 99/94/42
f 100/95/43 99/94/43 101/96/43
f 51/42/44 101/96/44 53/97/44
f 116/98/17 45/38/17 56/99/17
f 49/100/45 103/101/45 102/102/45
f 103/101/46 46/103/46 102/102/46
f 47/104/17 50/105/17 48/37/17
f 105/106/47 47/107/47 46/103/47
f 106/108/15 49/100/15 47/107/15
f 106/109/17 103/110/17 104/111/17
f 22/112/17 98/113/17 24/114/17
f 20/115/17 96/116/17 22/112/17
f 18/117/17 94/118/17 20/115/17
f 16/119/17 92/120/17 18/117/17
f 14/121/17 90/122/17 16/119/17
f 12/123/17 88/124/17 14/121/17
f 10/125/17 86/126/17 12/123/17
f 10/125/17 8/127/17 84/128/17
f 24/114/17 100/129/17 26/130/17
f 2/41/17 78/131/17 80/132/17
f 76/40/17 78/131/17 2/41/17
f 6/133/17 80/132/17 82/134/17
f 107/135/17 72/136/17 74/137/17
f 108/138/17 70/139/17 72/136/17
f 109/140/17 68/141/17 70/139/17
f 110/142/17 66/143/17 68/141/17
f 111/144/17 64/145/17 66/143/17
f 112/146/17 62/147/17 64/145/17
f 113/148/17 60/149/17 62/147/17
f 114/150/17 58/151/17 60/149/17
f 115/152/17 56/99/17 58/151/17
f 41/153/48 44/35/48 116/154/48
f 40/155/49 116/154/49 115/156/49
f 39/157/50 115/156/50 114/158/50
f 38/159/51 114/158/51 113/160/51
f 37/161/52 113/160/52 112/162/52
f 36/163/53 112/162/53 111/164/53
f 35/165/54 111/164/54 110/166/54
f 34/167/55 110/166/55 109/168/55
f 33/169/56 109/168/56 108/170/56
f 32/171/57 108/170/57 107/172/57
f 4/173/58 107/172/58 3/2/58
f 95/174/59 65/175/59 63/176/59
f 30/177/17 51/178/17 50/105/17
f 37/179/17 19/180/17 38/181/17
f 51/178/17 26/130/17 100/129/17
f 1/1/1 4/173/1 3/2/1
f 6/4/2 5/5/2 1/1/2
f 5/5/3 6/4/3 8/6/3
f 7/7/4 8/6/4 10/8/4
f 9/9/5 10/8/5 12/10/5
f 11/11/60 12/10/60 14/12/60
f 13/13/7 14/12/7 16/14/7
f 15/15/8 16/14/8 18/16/8
f 17/17/61 18/16/61 20/18/61
f 19/19/10 20/18/10 22/20/10
f 21/21/62 22/20/62 24/22/62
f 23/23/12 24/22/12 26/24/12
f 25/25/13 26/24/13 28/26/13
f 27/27/14 28/26/14 30/28/14
f 43/30/15 31/182/15 29/31/15
f 42/33/16 31/183/16 43/34/16
f 43/36/17 30/177/17 102/184/17
f 46/185/17 47/104/17 48/37/17
f 43/36/17 102/184/17 46/185/17
f 45/38/17 44/186/17 43/36/17
f 46/185/17 48/37/17 43/36/17
f 3/39/17 74/137/17 76/40/17
f 51/42/18 53/97/18 52/43/18
f 50/45/19 52/187/19 54/46/19
f 45/48/20 48/188/20 54/49/20
f 45/48/63 55/50/63 57/51/63
f 56/52/22 57/51/22 59/53/22
f 58/54/23 59/53/23 61/55/23
f 60/56/64 61/55/64 63/57/64
f 62/58/25 63/57/25 65/59/25
f 64/60/26 65/59/26 67/61/26
f 66/62/65 67/61/65 69/63/65
f 68/64/28 69/63/28 71/65/28
f 70/66/66 71/65/66 73/67/66
f 72/68/67 73/67/67 75/69/67
f 74/70/31 75/69/31 77/71/31
f 76/72/32 77/71/32 79/73/32
f 80/75/33 78/74/33 79/73/33
f 82/77/68 80/75/68 81/76/68
f 84/79/69 82/77/69 83/78/69
f 86/81/70 84/79/70 85/80/70
f 88/83/37 86/81/37 87/82/37
f 90/85/38 88/83/38 89/84/38
f 92/87/71 90/85/71 91/86/71
f 94/89/40 92/87/40 93/88/40
f 96/91/72 94/89/72 95/90/72
f 98/93/42 96/91/42 97/92/42
f 100/95/43 98/93/43 99/94/43
f 51/42/44 100/95/44 101/96/44
f 116/98/17 44/186/17 45/38/17
f 49/100/45 104/189/45 103/101/45
f 103/101/46 105/106/46 46/103/46
f 47/104/17 49/190/17 50/105/17
f 105/106/47 106/108/47 47/107/47
f 106/108/15 104/189/15 49/100/15
f 106/109/17 105/191/17 103/110/17
f 22/112/17 96/116/17 98/113/17
f 20/115/17 94/118/17 96/116/17
f 18/117/17 92/120/17 94/118/17
f 16/119/17 90/122/17 92/120/17
f 14/121/17 88/124/17 90/122/17
f 12/123/17 86/126/17 88/124/17
f 10/125/17 84/128/17 86/126/17
f 82/134/17 84/128/17 8/127/17
f 8/127/17 6/133/17 82/134/17
f 24/114/17 98/113/17 100/129/17
f 6/133/17 2/41/17 80/132/17
f 74/137/17 3/39/17 107/135/17
f 107/135/17 108/138/17 72/136/17
f 108/138/17 109/140/17 70/139/17
f 109/140/17 110/142/17 68/141/17
f 110/142/17 111/144/17 66/143/17
f 111/144/17 112/146/17 64/145/17
f 112/146/17 113/148/17 62/147/17
f 113/148/17 114/150/17 60/149/17
f 114/150/17 115/152/17 58/151/17
f 115/152/17 116/98/17 56/99/17
f 41/153/73 42/33/73 44/35/73
f 40/155/49 41/153/49 116/154/49
f 39/157/74 40/155/74 115/156/74
f 38/159/51 39/157/51 114/158/51
f 37/161/75 38/159/75 113/160/75
f 36/163/53 37/161/53 112/162/53
f 35/165/76 36/163/76 111/164/76
f 34/167/55 35/165/55 110/166/55
f 33/169/56 34/167/56 109/168/56
f 32/171/57 33/169/57 108/170/57
f 4/173/58 32/171/58 107/172/58
f 54/192/59 52/193/59 53/194/59
f 53/194/59 101/195/59 55/196/59
f 99/197/59 97/198/59 59/199/59
f 95/174/59 93/200/59 65/175/59
f 91/201/59 89/202/59 69/203/59
f 87/204/59 85/205/59 73/206/59
f 83/207/59 81/208/59 75/209/59
f 79/210/59 77/211/59 81/208/59
f 75/209/59 73/206/59 85/205/59
f 71/212/59 69/203/59 89/202/59
f 67/213/59 65/175/59 93/200/59
f 63/176/59 61/214/59 95/174/59
f 59/199/59 57/215/59 99/197/59
f 55/196/59 54/192/59 53/194/59
f 101/195/59 57/215/59 55/196/59
f 93/200/59 91/201/59 67/213/59
f 85/205/59 83/207/59 75/209/59
f 77/211/59 75/209/59 81/208/59
f 69/203/59 67/213/59 91/201/59
f 61/214/59 97/198/59 95/174/59
f 101/195/59 99/197/59 57/215/59
f 89/202/59 87/204/59 71/212/59
f 73/206/59 71/212/59 87/204/59
f 59/199/59 97/198/59 61/214/59
f 50/105/17 49/190/17 102/184/17
f 30/177/17 28/216/17 51/178/17
f 50/105/17 102/184/17 30/177/17
f 31/217/17 42/218/17 29/219/17
f 41/220/17 40/221/17 23/222/17
f 39/223/17 38/181/17 21/224/17
f 37/179/17 36/225/17 15/226/17
f 35/227/17 34/228/17 13/229/17
f 33/230/17 32/231/17 7/232/17
f 4/233/17 1/234/17 5/235/17
f 5/235/17 7/232/17 32/231/17
f 9/236/17 11/237/17 33/230/17
f 13/229/17 15/226/17 36/225/17
f 17/238/17 19/180/17 37/179/17
f 21/224/17 23/222/17 40/221/17
f 25/239/17 27/240/17 41/220/17
f 29/219/17 42/218/17 27/240/17
f 40/221/17 39/223/17 21/224/17
f 36/225/17 35/227/17 13/229/17
f 32/231/17 4/233/17 5/235/17
f 7/232/17 9/236/17 33/230/17
f 15/226/17 17/238/17 37/179/17
f 23/222/17 25/239/17 41/220/17
f 42/218/17 41/220/17 27/240/17
f 34/228/17 11/237/17 13/229/17
f 11/237/17 34/228/17 33/230/17
f 21/224/17 38/181/17 19/180/17
f 51/178/17 28/216/17 26/130/17
